<svg width="35" height="35" viewBox="0 0 35 35" fill="none" xmlns="http://www.w3.org/2000/svg">
<path d="M34.4529 17.2966C34.4529 7.90679 26.8427 0.296631 17.4529 0.296631C8.06304 0.296631 0.452881 7.90679 0.452881 17.2966C0.452881 26.6865 8.06304 34.2966 17.4529 34.2966C17.5525 34.2966 17.6521 34.2966 17.7517 34.29V21.0619H14.0994V16.8052H17.7517V13.6708C17.7517 10.0384 19.9697 8.05952 23.2103 8.05952C24.7642 8.05952 26.099 8.17241 26.4841 8.22554V12.024H24.2529C22.4931 12.024 22.1478 12.8607 22.1478 14.0892V16.7986H26.3646L25.8134 21.0552H22.1478V33.6392C29.2533 31.6005 34.4529 25.0595 34.4529 17.2966Z" fill="white"/>
</svg>
