<svg width="35" height="35" viewBox="0 0 35 35" fill="none" xmlns="http://www.w3.org/2000/svg">
<path d="M19.6302 17.2972C19.6302 18.6976 18.495 19.8329 17.0945 19.8329C15.6941 19.8329 14.5588 18.6976 14.5588 17.2972C14.5588 15.8967 15.6941 14.7615 17.0945 14.7615C18.495 14.7615 19.6302 15.8967 19.6302 17.2972Z" fill="white"/>
<path d="M23.9574 12.1053C23.8163 11.723 23.5913 11.377 23.2989 11.093C23.0149 10.8006 22.6691 10.5756 22.2866 10.4345C21.9764 10.314 21.5104 10.1706 20.6521 10.1315C19.7236 10.0892 19.4452 10.0801 17.0946 10.0801C14.7438 10.0801 14.4654 10.089 13.5371 10.1313C12.6788 10.1706 12.2126 10.314 11.9026 10.4345C11.5201 10.5756 11.1741 10.8006 10.8904 11.093C10.598 11.377 10.3729 11.7228 10.2316 12.1053C10.1111 12.4155 9.96773 12.8817 9.92866 13.74C9.88632 14.6683 9.8772 14.9467 9.8772 17.2975C9.8772 19.6481 9.88632 19.9265 9.92866 20.855C9.96773 21.7133 10.1111 22.1793 10.2316 22.4895C10.3729 22.872 10.5977 23.2178 10.8901 23.5018C11.1741 23.7942 11.5199 24.0192 11.9024 24.1603C12.2126 24.281 12.6788 24.4244 13.5371 24.4635C14.4654 24.5058 14.7436 24.5147 17.0944 24.5147C19.4455 24.5147 19.7239 24.5058 20.6519 24.4635C21.5102 24.4244 21.9764 24.281 22.2866 24.1603C23.0544 23.8641 23.6612 23.2573 23.9574 22.4895C24.0779 22.1793 24.2213 21.7133 24.2606 20.855C24.3029 19.9265 24.3118 19.6481 24.3118 17.2975C24.3118 14.9467 24.3029 14.6683 24.2606 13.74C24.2215 12.8817 24.0781 12.4155 23.9574 12.1053ZM17.0946 21.8179C14.5978 21.8179 12.5738 19.7941 12.5738 17.2973C12.5738 14.8005 14.5978 12.7767 17.0946 12.7767C19.5912 12.7767 21.6152 14.8005 21.6152 17.2973C21.6152 19.7941 19.5912 21.8179 17.0946 21.8179ZM21.794 13.6544C21.2105 13.6544 20.7375 13.1814 20.7375 12.5979C20.7375 12.0145 21.2105 11.5415 21.794 11.5415C22.3774 11.5415 22.8504 12.0145 22.8504 12.5979C22.8502 13.1814 22.3774 13.6544 21.794 13.6544Z" fill="white"/>
<path d="M17.0947 0.297119C7.70732 0.297119 0.0947266 7.90971 0.0947266 17.2971C0.0947266 26.6845 7.70732 34.2971 17.0947 34.2971C26.4821 34.2971 34.0947 26.6845 34.0947 17.2971C34.0947 7.90971 26.4821 0.297119 17.0947 0.297119ZM26.7976 21.3217C26.7504 22.3609 26.5851 23.0703 26.3439 23.6913C25.8367 25.0026 24.8002 26.0391 23.4889 26.5463C22.8682 26.7875 22.1585 26.9525 21.1196 27C20.0786 27.0474 19.746 27.0588 17.095 27.0588C14.4437 27.0588 14.1114 27.0474 13.0701 27C12.0312 26.9525 11.3215 26.7875 10.7008 26.5463C10.0492 26.3011 9.4593 25.917 8.97163 25.4202C8.47514 24.9328 8.09097 24.3427 7.84584 23.6913C7.6046 23.0706 7.43936 22.3609 7.39215 21.322C7.34416 20.2807 7.33301 19.9482 7.33301 17.2971C7.33301 14.6461 7.34416 14.3135 7.39189 13.2725C7.4391 12.2334 7.60408 11.5239 7.84532 10.9029C8.09045 10.2516 8.47488 9.66144 8.97163 9.17403C9.45905 8.67728 10.0492 8.29311 10.7005 8.04797C11.3215 7.80673 12.031 7.64175 13.0701 7.59428C14.1111 7.54681 14.4437 7.5354 17.0947 7.5354C19.7458 7.5354 20.0783 7.54681 21.1193 7.59454C22.1585 7.64175 22.8679 7.80673 23.4889 8.04771C24.1403 8.29285 24.7304 8.67728 25.2181 9.17403C25.7146 9.6617 26.099 10.2516 26.3439 10.9029C26.5854 11.5239 26.7504 12.2334 26.7978 13.2725C26.8453 14.3135 26.8564 14.6461 26.8564 17.2971C26.8564 19.9482 26.8453 20.2807 26.7976 21.3217Z" fill="white"/>
</svg>
