<svg width="40" height="39" viewBox="0 0 40 39" fill="none" xmlns="http://www.w3.org/2000/svg">
<path d="M20.2056 38.8313C30.8742 38.8313 39.5228 30.1827 39.5228 19.5141C39.5228 8.84552 30.8742 0.19693 20.2056 0.19693C9.53702 0.19693 0.888428 8.84552 0.888428 19.5141C0.888428 30.1827 9.53702 38.8313 20.2056 38.8313Z" fill="#4CAF50"/>
<path d="M20.2055 9.34714C18.3325 9.34785 16.4961 9.86597 14.8988 10.8443C13.3016 11.8227 12.0057 13.2233 11.1541 14.8915C10.3025 16.5598 9.9283 18.4308 10.0728 20.2983C10.2173 22.1658 10.8748 23.957 11.9729 25.4744L10.702 29.2515L14.6137 28.0009C15.9371 28.8738 17.4462 29.4252 19.0206 29.611C20.595 29.7967 22.191 29.6118 23.6811 29.0708C25.1713 28.5299 26.5143 27.648 27.6029 26.4955C28.6915 25.343 29.4955 23.952 29.9507 22.4334C30.4059 20.9149 30.4997 19.311 30.2246 17.7497C29.9495 16.1885 29.3131 14.7132 28.3662 13.4417C27.4194 12.1702 26.1883 11.1378 24.7714 10.4268C23.3544 9.71588 21.7909 9.34614 20.2055 9.34714ZM25.6093 23.7257L24.5265 24.8085C23.3878 25.9472 20.3682 24.6941 17.6918 22.0126C15.0153 19.3311 13.8156 16.3191 14.8984 15.1931L15.9812 14.1103C16.1909 13.9176 16.4653 13.8107 16.7501 13.8107C17.0349 13.8107 17.3093 13.9176 17.5189 14.1103L19.1151 15.7015C19.2453 15.828 19.3408 15.9858 19.3924 16.1599C19.4441 16.3339 19.4502 16.5183 19.4101 16.6953C19.3701 16.8724 19.2852 17.0362 19.1637 17.171C19.0422 17.3059 18.888 17.4072 18.7161 17.4654C18.4624 17.5465 18.2498 17.7222 18.1224 17.9561C17.9951 18.19 17.9628 18.464 18.0324 18.7211C18.317 19.9157 19.8548 21.3975 20.996 21.6822C21.2517 21.7358 21.5182 21.6955 21.7465 21.5685C21.9748 21.4415 22.1497 21.2364 22.2389 20.9908C22.2965 20.8164 22.3982 20.6598 22.5343 20.5364C22.6704 20.4131 22.8362 20.3271 23.0154 20.2869C23.1946 20.2467 23.3812 20.2536 23.557 20.3071C23.7327 20.3605 23.8916 20.4586 24.0181 20.5918L25.6118 22.188C25.8042 22.398 25.9107 22.6726 25.9102 22.9573C25.9098 23.2421 25.8024 23.5164 25.6093 23.7257Z" fill="white"/>
</svg>
