<svg width="40" height="39" viewBox="0 0 40 39" fill="none" xmlns="http://www.w3.org/2000/svg">
<path d="M19.9724 38.8313C30.641 38.8313 39.2896 30.1827 39.2896 19.5141C39.2896 8.84552 30.641 0.19693 19.9724 0.19693C9.30386 0.19693 0.655273 8.84552 0.655273 19.5141C0.655273 30.1827 9.30386 38.8313 19.9724 38.8313Z" fill="#665CAC"/>
<path d="M22.0061 9.34717H17.9394C16.0519 9.34717 14.2417 10.097 12.907 11.4316C11.5723 12.7663 10.8225 14.5765 10.8225 16.464V19.5141C10.8219 20.8614 11.2038 22.1811 11.9237 23.3199C12.6436 24.4588 13.672 25.3698 14.8893 25.9472V29.3455C14.8905 29.4118 14.911 29.4763 14.9484 29.5311C14.9857 29.5859 15.0382 29.6286 15.0995 29.654C15.1608 29.6793 15.2281 29.6863 15.2933 29.6739C15.3584 29.6616 15.4185 29.6305 15.4663 29.5844L18.4197 26.631H22.0061C23.8936 26.631 25.7038 25.8811 27.0385 24.5465C28.3732 23.2118 29.123 21.4016 29.123 19.5141V16.464C29.123 14.5765 28.3732 12.7663 27.0385 11.4316C25.7038 10.097 23.8936 9.34717 22.0061 9.34717ZM24.6699 22.6862L23.6532 23.7029C22.5704 24.7628 19.744 23.5529 17.2531 21.0086C14.7622 18.4644 13.6693 15.61 14.7114 14.5501L15.7281 13.5334C15.9273 13.3545 16.1864 13.2569 16.4541 13.2597C16.7219 13.2625 16.9789 13.3656 17.1743 13.5487L18.6587 15.0737C18.7766 15.1953 18.8616 15.345 18.9057 15.5085C18.9499 15.6721 18.9517 15.8442 18.911 16.0086C18.8703 16.1731 18.7885 16.3245 18.6732 16.4486C18.558 16.5727 18.413 16.6655 18.252 16.7182C18.0133 16.7914 17.8121 16.9537 17.69 17.1715C17.5678 17.3892 17.5343 17.6456 17.5962 17.8874C17.8504 19.0159 19.2839 20.4291 20.3515 20.7062C20.5921 20.7635 20.8455 20.7311 21.064 20.6151C21.2825 20.4991 21.4512 20.3073 21.5385 20.0758C21.5948 19.9144 21.6918 19.7701 21.8201 19.657C21.9484 19.5439 22.1036 19.4657 22.2709 19.43C22.4381 19.3942 22.6117 19.4021 22.775 19.4529C22.9383 19.5037 23.0858 19.5957 23.2033 19.72L24.6851 21.245C24.8631 21.4437 24.9602 21.7018 24.9574 21.9686C24.9546 22.2353 24.852 22.4913 24.6699 22.6862ZM20.8979 14.1765C20.7968 14.176 20.6958 14.1819 20.5955 14.1943C20.5512 14.1991 20.5065 14.1952 20.4638 14.1827C20.4211 14.1703 20.3812 14.1495 20.3465 14.1217C20.3118 14.0938 20.283 14.0594 20.2616 14.0204C20.2402 13.9814 20.2267 13.9386 20.2218 13.8943C20.217 13.8501 20.2209 13.8054 20.2334 13.7626C20.2458 13.7199 20.2666 13.6801 20.2944 13.6454C20.3223 13.6107 20.3567 13.5818 20.3957 13.5604C20.4347 13.539 20.4775 13.5255 20.5218 13.5207C20.6466 13.5063 20.7723 13.4995 20.8979 13.5004C21.7974 13.4997 22.6604 13.8562 23.2972 14.4915C23.9339 15.1268 24.2923 15.989 24.2937 16.8885C24.2945 17.0142 24.2877 17.1398 24.2734 17.2647C24.2685 17.3089 24.255 17.3517 24.2336 17.3907C24.2122 17.4297 24.1834 17.4642 24.1487 17.492C24.114 17.5199 24.0741 17.5406 24.0314 17.5531C23.9887 17.5655 23.944 17.5694 23.8997 17.5646C23.8555 17.5598 23.8127 17.5462 23.7737 17.5249C23.7346 17.5035 23.7002 17.4746 23.6724 17.4399C23.6445 17.4052 23.6238 17.3654 23.6113 17.3226C23.5989 17.2799 23.595 17.2352 23.5998 17.191C23.6109 17.0905 23.6168 16.9895 23.6176 16.8885C23.6162 16.1683 23.329 15.4781 22.8191 14.9696C22.3091 14.4611 21.6181 14.1758 20.8979 14.1765ZM22.9313 16.8885C22.924 16.9734 22.885 17.0525 22.8222 17.1101C22.7594 17.1677 22.6772 17.1997 22.592 17.1997C22.5068 17.1997 22.4246 17.1677 22.3618 17.1101C22.299 17.0525 22.26 16.9734 22.2527 16.8885C22.2527 16.5292 22.11 16.1846 21.8559 15.9305C21.6018 15.6765 21.2572 15.5337 20.8979 15.5337C20.8509 15.5378 20.8035 15.5321 20.7589 15.5169C20.7142 15.5017 20.6731 15.4773 20.6383 15.4454C20.6035 15.4135 20.5758 15.3747 20.5568 15.3315C20.5378 15.2883 20.528 15.2416 20.528 15.1944C20.528 15.1472 20.5378 15.1005 20.5568 15.0573C20.5758 15.0141 20.6035 14.9753 20.6383 14.9434C20.6731 14.9115 20.7142 14.8872 20.7589 14.872C20.8035 14.8568 20.8509 14.851 20.8979 14.8551C21.4372 14.8551 21.9544 15.0693 22.3358 15.4507C22.7171 15.832 22.9313 16.3492 22.9313 16.8885ZM25.5163 17.9891C25.5087 18.0353 25.4918 18.0794 25.4664 18.1188C25.4411 18.1581 25.4079 18.1919 25.3689 18.2178C25.33 18.2438 25.2861 18.2614 25.24 18.2696C25.1939 18.2779 25.1466 18.2765 25.1011 18.2657C25.0556 18.2548 25.0127 18.2347 24.9753 18.2065C24.9379 18.1784 24.9067 18.1428 24.8837 18.1021C24.8606 18.0613 24.8462 18.0163 24.8413 17.9697C24.8365 17.9232 24.8413 17.8761 24.8554 17.8315C24.9288 17.5243 24.9655 17.2094 24.9647 16.8936C24.9647 15.815 24.5362 14.7806 23.7736 14.0179C23.0109 13.2553 21.9765 12.8268 20.8979 12.8268C20.7937 12.8268 20.687 12.8268 20.5828 12.8268C20.5384 12.8301 20.4938 12.8247 20.4515 12.8108C20.4092 12.7969 20.37 12.7748 20.3363 12.7458C20.2681 12.6871 20.226 12.6038 20.2193 12.5142C20.2126 12.4245 20.2417 12.3358 20.3003 12.2677C20.359 12.1995 20.4423 12.1574 20.5319 12.1507C20.6539 12.1405 20.7759 12.1354 20.8979 12.1354C22.1572 12.1375 23.3642 12.6391 24.2539 13.5303C25.1436 14.4214 25.6434 15.6292 25.6434 16.8885C25.6435 17.259 25.6008 17.6283 25.5163 17.9891Z" fill="white"/>
</svg>
