<svg width="28" height="18" viewBox="0 0 28 18" fill="none" xmlns="http://www.w3.org/2000/svg">
<path d="M17.6592 15.6123H10.2346V2.26904H17.6592V15.6123Z" fill="#FF5F00"/>
<path d="M10.7105 8.93929C10.7105 6.23256 11.9779 3.82147 13.9514 2.26768C12.5082 1.13146 10.6868 0.453297 8.70733 0.453297C4.02112 0.453297 0.222412 4.25255 0.222412 8.93929C0.222412 13.626 4.02112 17.4253 8.70733 17.4253C10.6868 17.4253 12.5082 16.7471 13.9514 15.6109C11.9779 14.0571 10.7105 11.646 10.7105 8.93929Z" fill="#EB001B"/>
<path d="M27.6729 8.93929C27.6729 13.626 23.8742 17.4253 19.188 17.4253C17.2085 17.4253 15.3871 16.7471 13.9434 15.6109C15.9174 14.0571 17.1848 11.646 17.1848 8.93929C17.1848 6.23256 15.9174 3.82147 13.9434 2.26768C15.3871 1.13146 17.2085 0.453297 19.188 0.453297C23.8742 0.453297 27.6729 4.25255 27.6729 8.93929Z" fill="#F79E1B"/>
<path d="M6.60703 8.99313C6.60703 8.62247 6.84993 8.31796 7.24685 8.31796C7.6261 8.31796 7.88214 8.60934 7.88214 8.99313C7.88214 9.37693 7.6261 9.66831 7.24685 9.66831C6.84993 9.66831 6.60703 9.3638 6.60703 8.99313ZM8.31441 8.99313V7.9387H7.85588V8.19474C7.71044 8.00486 7.48976 7.88568 7.18979 7.88568C6.59844 7.88568 6.13485 8.34926 6.13485 8.99313C6.13485 9.63751 6.59844 10.1006 7.18979 10.1006C7.48976 10.1006 7.71044 9.98141 7.85588 9.79153V10.0476H8.31441V8.99313ZM23.8097 8.99313C23.8097 8.62247 24.0526 8.31796 24.4495 8.31796C24.8293 8.31796 25.0848 8.60934 25.0848 8.99313C25.0848 9.37693 24.8293 9.66831 24.4495 9.66831C24.0526 9.66831 23.8097 9.3638 23.8097 8.99313ZM25.5176 8.99313V7.09183H25.0585V8.19474C24.9131 8.00486 24.6924 7.88568 24.3924 7.88568C23.8011 7.88568 23.3375 8.34926 23.3375 8.99313C23.3375 9.63751 23.8011 10.1006 24.3924 10.1006C24.6924 10.1006 24.9131 9.98141 25.0585 9.79153V10.0476H25.5176V8.99313ZM14.0062 8.29624C14.3016 8.29624 14.4915 8.48157 14.54 8.8078H13.4457C13.4946 8.50329 13.6795 8.29624 14.0062 8.29624ZM14.0153 7.88568C13.3972 7.88568 12.9649 8.33563 12.9649 8.99313C12.9649 9.66377 13.4149 10.1006 14.0461 10.1006C14.3637 10.1006 14.6546 10.0213 14.9107 9.80516L14.6859 9.4653C14.5092 9.6062 14.284 9.68599 14.0724 9.68599C13.7769 9.68599 13.5078 9.54913 13.4416 9.16938H15.0076C15.0122 9.11231 15.0167 9.05474 15.0167 8.99313C15.0122 8.33563 14.6061 7.88568 14.0153 7.88568ZM19.5521 8.99313C19.5521 8.62247 19.795 8.31796 20.1919 8.31796C20.5711 8.31796 20.8272 8.60934 20.8272 8.99313C20.8272 9.37693 20.5711 9.66831 20.1919 9.66831C19.795 9.66831 19.5521 9.3638 19.5521 8.99313ZM21.2594 8.99313V7.9387H20.8009V8.19474C20.655 8.00486 20.4348 7.88568 20.1348 7.88568C19.5435 7.88568 19.0799 8.34926 19.0799 8.99313C19.0799 9.63751 19.5435 10.1006 20.1348 10.1006C20.4348 10.1006 20.655 9.98141 20.8009 9.79153V10.0476H21.2594V8.99313ZM16.9624 8.99313C16.9624 9.63296 17.4079 10.1006 18.0876 10.1006C18.4052 10.1006 18.6168 10.0299 18.8461 9.8491L18.6259 9.47843C18.4537 9.60216 18.2729 9.66831 18.0739 9.66831C17.7078 9.66377 17.4387 9.39915 17.4387 8.99313C17.4387 8.58712 17.7078 8.3225 18.0739 8.31796C18.2729 8.31796 18.4537 8.38411 18.6259 8.50783L18.8461 8.13717C18.6168 7.95638 18.4052 7.88568 18.0876 7.88568C17.4079 7.88568 16.9624 8.3533 16.9624 8.99313ZM22.8744 7.88568C22.6098 7.88568 22.4376 8.0094 22.3184 8.19474V7.9387H21.8639V10.0476H22.323V8.86537C22.323 8.51642 22.4729 8.3225 22.7729 8.3225C22.8658 8.3225 22.9628 8.33563 23.0597 8.37552L23.2011 7.94325C23.0996 7.90335 22.9673 7.88568 22.8744 7.88568ZM10.5823 8.10636C10.3617 7.96092 10.0577 7.88568 9.72234 7.88568C9.18805 7.88568 8.84415 8.14171 8.84415 8.56086C8.84415 8.90476 9.10018 9.11686 9.57185 9.18301L9.78849 9.21382C10.04 9.24917 10.1587 9.31532 10.1587 9.4345C10.1587 9.59761 9.991 9.69053 9.6779 9.69053C9.36026 9.69053 9.13099 9.58903 8.97646 9.46985L8.76032 9.82688C9.01181 10.0122 9.32945 10.1006 9.67335 10.1006C10.2824 10.1006 10.6354 9.81375 10.6354 9.41228C10.6354 9.04161 10.3576 8.84769 9.89858 8.78154L9.68244 8.75023C9.48398 8.72397 9.32491 8.68458 9.32491 8.54318C9.32491 8.38865 9.47489 8.29624 9.72638 8.29624C9.99554 8.29624 10.2561 8.39774 10.3839 8.47703L10.5823 8.10636ZM16.4989 7.88568C16.2342 7.88568 16.062 8.0094 15.9434 8.19474V7.9387H15.4889V10.0476H15.9474V8.86537C15.9474 8.51642 16.0974 8.3225 16.3974 8.3225C16.4903 8.3225 16.5872 8.33563 16.6842 8.37552L16.8256 7.94325C16.7241 7.90335 16.5918 7.88568 16.4989 7.88568ZM12.5857 7.9387H11.8357V7.29888H11.3722V7.9387H10.9444V8.35785H11.3722V9.31986C11.3722 9.8092 11.562 10.1006 12.1044 10.1006C12.3034 10.1006 12.5326 10.039 12.6781 9.93747L12.5458 9.54459C12.4089 9.62387 12.2589 9.66377 12.1397 9.66377C11.9105 9.66377 11.8357 9.52237 11.8357 9.31077V8.35785H12.5857V7.9387ZM5.72935 10.0476V8.72397C5.72935 8.22554 5.4117 7.89022 4.89964 7.88568C4.63048 7.88113 4.35273 7.96496 4.15831 8.26089C4.01287 8.02708 3.7836 7.88568 3.46141 7.88568C3.23619 7.88568 3.01601 7.95183 2.84381 8.19878V7.9387H2.38477V10.0476H2.84785V8.8785C2.84785 8.51238 3.05085 8.31796 3.36445 8.31796C3.66897 8.31796 3.82299 8.51642 3.82299 8.87395V10.0476H4.28657V8.8785C4.28657 8.51238 4.49817 8.31796 4.80268 8.31796C5.11578 8.31796 5.26576 8.51642 5.26576 8.87395V10.0476H5.72935Z" fill="white"/>
</svg>
