<svg width="18" height="15" viewBox="0 0 18 15" fill="none" xmlns="http://www.w3.org/2000/svg">
<path d="M0.922887 6.37575C0.38073 4.96299 0.54059 3.49883 1.33587 2.34184L1.33593 2.34176C2.12625 1.19148 3.43236 0.504761 4.83016 0.504761C5.97342 0.504761 7.12555 0.958027 8.16173 1.8554L8.23424 1.92651L8.58644 2.27188L8.93654 1.92439L8.98665 1.87466C10.0455 0.956869 11.1972 0.504761 12.3389 0.504761C13.7365 0.504761 15.0426 1.19147 15.8332 2.34181L15.8332 2.34184C16.6286 3.49894 16.7884 4.96368 16.2463 6.37553C15.7969 7.54392 14.7893 8.57148 13.6026 9.68912C13.3166 9.95786 13.0278 10.2267 12.7295 10.5042L12.6482 10.5799L12.6481 10.58L12.6352 10.592C11.5463 11.6049 10.3069 12.7578 8.67196 14.3915L8.6706 14.3929C8.66669 14.3968 8.66266 14.4009 8.65854 14.405C8.6365 14.4271 8.61164 14.4521 8.58546 14.4798L8.49726 14.3916L8.49711 14.3915C6.86029 12.7561 5.62066 11.603 4.53098 10.5895L4.52322 10.5822C4.19518 10.2771 3.87917 9.9827 3.56705 9.68946C2.38016 8.57227 1.37254 7.54511 0.922902 6.37578L0.922887 6.37575Z" stroke="#EA7E73"/>
</svg>
