<svg width="21" height="21" viewBox="0 0 21 21" fill="none" xmlns="http://www.w3.org/2000/svg">
<path d="M20.3649 19.1206L16.9275 15.7599L16.847 15.6374C16.6972 15.4883 16.4923 15.4042 16.2785 15.4042C16.0647 15.4042 15.8599 15.4883 15.7101 15.6374C12.7889 18.3174 8.28752 18.4631 5.19138 15.9778C2.09524 13.4925 1.36504 9.14747 3.48506 5.82427C5.60508 2.50107 9.91745 1.23095 13.5622 2.85624C17.207 4.48152 19.0532 8.49789 17.8764 12.2417C17.7916 12.5122 17.8609 12.8063 18.0581 13.0133C18.2553 13.2203 18.5505 13.3087 18.8324 13.2452C19.1144 13.1817 19.3403 12.976 19.425 12.7055C20.8318 8.26274 18.7071 3.48165 14.4255 1.45516C10.1439 -0.571339 4.99021 0.764923 2.29843 4.59952C-0.393355 8.43411 0.184554 13.6162 3.65831 16.7936C7.13206 19.971 12.4592 20.19 16.1935 17.309L19.237 20.2846C19.5514 20.5906 20.0595 20.5906 20.3739 20.2846C20.6879 19.9743 20.6879 19.4747 20.3739 19.1644L20.3649 19.1206Z" fill="#4C5228"/>
</svg>
