<svg width="44" height="28" viewBox="0 0 44 28" fill="none" xmlns="http://www.w3.org/2000/svg">
<rect x="0.803711" y="0.36084" width="42.43" height="27.1552" rx="3" fill="#EDEDF0"/>
<path d="M19.8688 18.6352H17.2566L18.8905 9.27051H21.5025L19.8688 18.6352Z" fill="#00579F"/>
<path d="M29.3381 9.49928C28.8229 9.3098 28.0057 9.10059 26.9952 9.10059C24.4155 9.10059 22.599 10.3757 22.5878 12.1988C22.5664 13.5438 23.8884 14.2909 24.8772 14.7394C25.8878 15.1976 26.2314 15.4968 26.2314 15.9052C26.2211 16.5326 25.4147 16.8218 24.6627 16.8218C23.6197 16.8218 23.0609 16.6727 22.2117 16.3237L21.8677 16.174L21.5022 18.2762C22.1149 18.535 23.2436 18.7646 24.4155 18.7746C27.1564 18.7746 28.9409 17.5192 28.962 15.5765C28.9724 14.5104 28.2744 13.6936 26.7693 13.0261C25.8557 12.5976 25.2962 12.3087 25.2962 11.8703C25.3069 11.4717 25.7694 11.0635 26.8008 11.0635C27.65 11.0435 28.2739 11.2327 28.7466 11.422L28.9829 11.5215L29.3381 9.49928Z" fill="#00579F"/>
<path d="M32.8098 15.3176C33.025 14.7797 33.8528 12.6975 33.8528 12.6975C33.8419 12.7175 34.0674 12.1495 34.1964 11.8009L34.379 12.6078C34.379 12.6078 34.8737 14.8494 34.9811 15.3176C34.5728 15.3176 33.3258 15.3176 32.8098 15.3176ZM36.0343 9.27051H34.0137C33.3906 9.27051 32.9173 9.43973 32.6484 10.0475L28.7683 18.6351H31.5092C31.5092 18.6351 31.9605 17.4793 32.0575 17.2303C32.3582 17.2303 35.0245 17.2303 35.4113 17.2303C35.4863 17.5591 35.723 18.6351 35.723 18.6351H38.1417L36.0343 9.27051Z" fill="#00579F"/>
<path d="M15.0743 9.27051L12.5161 15.6564L12.2366 14.3612C11.7636 12.8668 10.2803 11.2432 8.625 10.4359L10.9682 18.6253H13.7306L17.8365 9.27051H15.0743Z" fill="#00579F"/>
<path d="M10.1408 9.27051H5.93802L5.89502 9.45972C9.17347 10.2369 11.3447 12.1101 12.2368 14.3616L11.3231 10.0577C11.1727 9.45959 10.7105 9.29024 10.1408 9.27051Z" fill="#FAA61A"/>
</svg>
