<svg width="44" height="28" viewBox="0 0 44 28" fill="none" xmlns="http://www.w3.org/2000/svg">
<rect x="0.741699" y="0.36084" width="42.43" height="27.1552" rx="3" fill="#EDEDF0"/>
<path d="M25.6592 20.6123H18.2346V7.26904H25.6592V20.6123Z" fill="#FF5F00"/>
<path d="M18.7105 13.9393C18.7105 11.2326 19.9779 8.82147 21.9514 7.26768C20.5082 6.13146 18.6868 5.4533 16.7073 5.4533C12.0211 5.4533 8.22241 9.25255 8.22241 13.9393C8.22241 18.626 12.0211 22.4253 16.7073 22.4253C18.6868 22.4253 20.5082 21.7471 21.9514 20.6109C19.9779 19.0571 18.7105 16.646 18.7105 13.9393Z" fill="#EB001B"/>
<path d="M35.6729 13.9393C35.6729 18.626 31.8742 22.4253 27.188 22.4253C25.2085 22.4253 23.3871 21.7471 21.9434 20.6109C23.9174 19.0571 25.1848 16.646 25.1848 13.9393C25.1848 11.2326 23.9174 8.82147 21.9434 7.26768C23.3871 6.13146 25.2085 5.4533 27.188 5.4533C31.8742 5.4533 35.6729 9.25255 35.6729 13.9393Z" fill="#F79E1B"/>
<path d="M14.607 13.9931C14.607 13.6225 14.8499 13.318 15.2469 13.318C15.6261 13.318 15.8821 13.6093 15.8821 13.9931C15.8821 14.3769 15.6261 14.6683 15.2469 14.6683C14.8499 14.6683 14.607 14.3638 14.607 13.9931ZM16.3144 13.9931V12.9387H15.8559V13.1947C15.7104 13.0049 15.4898 12.8857 15.1898 12.8857C14.5984 12.8857 14.1349 13.3493 14.1349 13.9931C14.1349 14.6375 14.5984 15.1006 15.1898 15.1006C15.4898 15.1006 15.7104 14.9814 15.8559 14.7915V15.0476H16.3144V13.9931ZM31.8097 13.9931C31.8097 13.6225 32.0526 13.318 32.4495 13.318C32.8293 13.318 33.0848 13.6093 33.0848 13.9931C33.0848 14.3769 32.8293 14.6683 32.4495 14.6683C32.0526 14.6683 31.8097 14.3638 31.8097 13.9931ZM33.5176 13.9931V12.0918H33.0585V13.1947C32.9131 13.0049 32.6924 12.8857 32.3924 12.8857C31.8011 12.8857 31.3375 13.3493 31.3375 13.9931C31.3375 14.6375 31.8011 15.1006 32.3924 15.1006C32.6924 15.1006 32.9131 14.9814 33.0585 14.7915V15.0476H33.5176V13.9931ZM22.0062 13.2962C22.3016 13.2962 22.4915 13.4816 22.54 13.8078H21.4457C21.4946 13.5033 21.6795 13.2962 22.0062 13.2962ZM22.0153 12.8857C21.3972 12.8857 20.9649 13.3356 20.9649 13.9931C20.9649 14.6638 21.4149 15.1006 22.0461 15.1006C22.3637 15.1006 22.6546 15.0213 22.9107 14.8052L22.6859 14.4653C22.5092 14.6062 22.284 14.686 22.0724 14.686C21.7769 14.686 21.5078 14.5491 21.4416 14.1694H23.0076C23.0122 14.1123 23.0167 14.0547 23.0167 13.9931C23.0122 13.3356 22.6061 12.8857 22.0153 12.8857ZM27.5521 13.9931C27.5521 13.6225 27.795 13.318 28.1919 13.318C28.5711 13.318 28.8272 13.6093 28.8272 13.9931C28.8272 14.3769 28.5711 14.6683 28.1919 14.6683C27.795 14.6683 27.5521 14.3638 27.5521 13.9931ZM29.2594 13.9931V12.9387H28.8009V13.1947C28.655 13.0049 28.4348 12.8857 28.1348 12.8857C27.5435 12.8857 27.0799 13.3493 27.0799 13.9931C27.0799 14.6375 27.5435 15.1006 28.1348 15.1006C28.4348 15.1006 28.655 14.9814 28.8009 14.7915V15.0476H29.2594V13.9931ZM24.9624 13.9931C24.9624 14.633 25.4079 15.1006 26.0876 15.1006C26.4052 15.1006 26.6168 15.0299 26.8461 14.8491L26.6259 14.4784C26.4537 14.6022 26.2729 14.6683 26.0739 14.6683C25.7078 14.6638 25.4387 14.3991 25.4387 13.9931C25.4387 13.5871 25.7078 13.3225 26.0739 13.318C26.2729 13.318 26.4537 13.3841 26.6259 13.5078L26.8461 13.1372C26.6168 12.9564 26.4052 12.8857 26.0876 12.8857C25.4079 12.8857 24.9624 13.3533 24.9624 13.9931ZM30.8744 12.8857C30.6098 12.8857 30.4376 13.0094 30.3184 13.1947V12.9387H29.8639V15.0476H30.323V13.8654C30.323 13.5164 30.4729 13.3225 30.7729 13.3225C30.8658 13.3225 30.9628 13.3356 31.0597 13.3755L31.2011 12.9432C31.0996 12.9034 30.9673 12.8857 30.8744 12.8857ZM18.5823 13.1064C18.3617 12.9609 18.0577 12.8857 17.7223 12.8857C17.1881 12.8857 16.8442 13.1417 16.8442 13.5609C16.8442 13.9048 17.1002 14.1169 17.5718 14.183L17.7885 14.2138C18.04 14.2492 18.1587 14.3153 18.1587 14.4345C18.1587 14.5976 17.991 14.6905 17.6779 14.6905C17.3603 14.6905 17.131 14.589 16.9765 14.4698L16.7603 14.8269C17.0118 15.0122 17.3295 15.1006 17.6734 15.1006C18.2824 15.1006 18.6354 14.8137 18.6354 14.4123C18.6354 14.0416 18.3576 13.8477 17.8986 13.7815L17.6824 13.7502C17.484 13.724 17.3249 13.6846 17.3249 13.5432C17.3249 13.3887 17.4749 13.2962 17.7264 13.2962C17.9955 13.2962 18.2561 13.3977 18.3839 13.477L18.5823 13.1064ZM24.4989 12.8857C24.2342 12.8857 24.062 13.0094 23.9434 13.1947V12.9387H23.4889V15.0476H23.9474V13.8654C23.9474 13.5164 24.0974 13.3225 24.3974 13.3225C24.4903 13.3225 24.5872 13.3356 24.6842 13.3755L24.8256 12.9432C24.7241 12.9034 24.5918 12.8857 24.4989 12.8857ZM20.5857 12.9387H19.8357V12.2989H19.3722V12.9387H18.9444V13.3578H19.3722V14.3199C19.3722 14.8092 19.562 15.1006 20.1044 15.1006C20.3034 15.1006 20.5326 15.039 20.6781 14.9375L20.5458 14.5446C20.4089 14.6239 20.2589 14.6638 20.1397 14.6638C19.9105 14.6638 19.8357 14.5224 19.8357 14.3108V13.3578H20.5857V12.9387ZM13.7293 15.0476V13.724C13.7293 13.2255 13.4117 12.8902 12.8996 12.8857C12.6305 12.8811 12.3527 12.965 12.1583 13.2609C12.0129 13.0271 11.7836 12.8857 11.4614 12.8857C11.2362 12.8857 11.016 12.9518 10.8438 13.1988V12.9387H10.3848V15.0476H10.8478V13.8785C10.8478 13.5124 11.0509 13.318 11.3645 13.318C11.669 13.318 11.823 13.5164 11.823 13.874V15.0476H12.2866V13.8785C12.2866 13.5124 12.4982 13.318 12.8027 13.318C13.1158 13.318 13.2658 13.5164 13.2658 13.874V15.0476H13.7293Z" fill="white"/>
</svg>
