<svg width="86" height="22" viewBox="0 0 86 22" fill="none" xmlns="http://www.w3.org/2000/svg">
<path d="M29.0389 10.3024L30.6238 6.64077L29.2406 3.39301L29.2138 3.33006H29.2833H29.8396H29.8705L29.8825 3.35832L31.019 6.07371L32.1554 3.35832L32.1674 3.33006H32.1983H32.7546H32.8241L32.7973 3.39301L31.4143 6.64062L33.0209 10.3029L36.005 3.30356L36.0169 3.27546H36.0477H36.6707H36.7409L36.7132 3.33889L33.3312 11.0924L33.319 11.12H33.2886H32.7657H32.7351L32.723 11.0924L31.0299 7.20398L29.326 11.0925L29.3139 11.12H29.2833H28.7604H28.73L28.7179 11.0924L25.3468 3.33889L25.3193 3.27545H25.3895H26.0014H26.0321L26.0441 3.3034L29.0389 10.3024V10.3024ZM12.7946 2.83333C12.6192 2.97321 12.5343 2.97867 12.5885 3.07166C12.6439 3.16705 12.6613 3.20784 12.5227 3.21459C12.3841 3.2215 12.2869 3.2011 12.3321 3.26903C12.3771 3.33713 12.4533 3.41871 12.2141 3.45613C11.9751 3.49355 11.3268 3.72497 10.9351 3.75564C10.5434 3.78616 10.3874 3.94611 10.3355 4.07202C10.2835 4.19793 9.79458 4.40879 9.66631 4.21832C9.5382 4.02785 9.38211 3.73525 9.45835 3.57529C9.82861 2.7988 8.99712 3.38322 8.77575 3.0731C10.076 2.70084 11.6279 2.49816 12.7946 2.83333L12.7946 2.83333ZM15.1024 3.52085C18.1101 4.74235 19.699 7.7399 20.1388 9.43533C19.6103 9.84566 18.5917 10.736 18.4811 10.1384C18.3703 9.54069 18.1776 10.1633 17.9835 9.67334C17.7893 9.18352 16.9851 8.74798 17.5674 9.48287C18.1499 10.2178 17.7324 9.89336 18.0095 10.2745C18.2868 10.6556 18.5365 10.8733 18.9801 10.7371C19.4238 10.6011 19.3407 11.0093 18.9524 11.4176C18.5642 11.826 17.7878 12.5607 17.8155 13.4862C17.8433 14.4118 18.1205 14.3572 17.5105 14.8471C16.9004 15.3371 17.3718 15.4732 16.9558 15.8543C16.5399 16.2353 16.6509 16.6709 15.9022 16.9974C15.1535 17.324 15.403 17.324 15.1811 16.6164C14.9592 15.9087 14.4048 15.5549 14.4602 14.6838C14.5157 13.8129 14.8761 13.1596 14.4324 12.6969C13.9889 12.2342 14.4602 11.3631 13.7946 11.4176C13.1291 11.472 12.2972 12.0436 11.6595 10.982C11.0217 9.92066 10.6611 9.04958 11.3267 8.64134C11.9923 8.2331 11.9644 7.60709 12.1585 7.44377C12.3527 7.28044 12.8519 7.68868 13.961 7.38932C15.0702 7.08981 14.3493 7.52535 15.0702 7.852C15.7912 8.17866 16.0131 7.90645 16.1795 7.79756C16.3457 7.68868 17.6769 7.49805 16.8173 7.17155C15.8375 6.79929 15.5457 7.01353 15.4247 6.42044C15.314 5.87617 13.9481 6.09459 14.4149 6.29164C14.8819 6.48853 15.2921 6.73601 15.098 6.7768C14.904 6.8176 14.732 7.05641 14.5844 7.00469C14.437 6.95282 14.9732 6.8449 14.6821 6.65427C14.3909 6.4638 14.1968 6.50475 14.0996 6.31412C14.0026 6.12365 13.9889 6.0827 13.9889 6.0827C13.9889 6.0827 13.6561 5.89223 13.24 6.4911C12.8241 7.08981 12.2418 7.30758 12.0754 6.68157C11.909 6.05556 13.5728 6.11 12.8795 5.70177C12.1863 5.29353 13.5451 5.13004 13.8779 5.1029C14.2106 5.07576 15.0702 4.17753 14.4879 4.31356C13.9056 4.44959 13.6561 4.53133 13.1569 4.20468C12.6655 3.88316 14.5921 4.01003 15.1024 3.52085L15.1024 3.52085ZM2.42699 9.79908C2.89362 7.61801 5.56987 4.0802 7.85132 3.51426C8.43362 3.51426 8.21405 4.33395 8.51903 4.85108C8.82401 5.3682 8.43575 5.66772 7.16021 5.85818C5.88466 6.04881 6.07887 6.89243 5.46876 7.16481C4.85864 7.43686 4.52584 8.17175 4.3318 7.8451C4.13775 7.5186 3.52763 7.57304 3.13937 8.63459C2.75111 9.69598 3.19795 9.51981 3.5129 9.43389C3.82786 9.34813 3.74933 9.79074 4.05431 10.2806C4.35928 10.7705 5.05285 10.5126 5.71828 10.3222C6.38386 10.1315 7.35443 10.6215 7.54847 11.1386C7.74268 11.6558 7.54847 12.0642 8.87948 12.5268C10.2105 12.9895 9.79458 13.1528 9.60053 13.7244C9.40632 14.2961 9.3232 14.6226 8.93494 15.1671C8.54685 15.7113 9.12915 16.038 8.54685 16.3102C7.96438 16.5824 7.29896 17.0724 7.32661 17.5895C7.35442 18.1066 7.79814 18.9777 6.99381 18.3788C6.18965 17.78 5.91248 16.7184 5.80155 15.1942C5.69062 13.67 5.27455 14.4593 4.69224 13.806C4.10994 13.1529 4.15166 12.2954 4.38726 11.8599C4.62303 11.4245 4.78943 10.9209 4.30415 10.8664C3.81887 10.812 3.61091 10.6896 3.4167 10.1996C3.22265 9.70963 3.15328 10.0363 2.72347 9.9682C2.57065 9.94411 2.47739 9.894 2.427 9.79909L2.42699 9.79908ZM25.3755 18.6596H60.8168V18.662H60.8394V18.6525C61.0803 18.6406 61.2876 18.5489 61.4626 18.3787C61.6505 18.1959 61.7444 17.9717 61.7444 17.7079C61.7444 17.4503 61.6521 17.2293 61.4641 17.0465C61.3638 16.9463 61.1596 16.8016 60.852 16.6078C60.4891 16.4154 60.2381 16.2516 60.0987 16.1149C59.8801 15.9002 59.7717 15.6427 59.7717 15.3421C59.7717 15.037 59.8801 14.7778 60.0987 14.5616C60.2897 14.3715 60.5169 14.265 60.7771 14.242C60.7771 14.2333 62.0664 14.2374 62.1889 14.2374V14.6442C61.7442 14.6442 61.2933 14.6424 60.9142 14.6395C60.7247 14.6382 60.5328 14.727 60.3968 14.8589C60.2607 14.9909 60.1928 15.1515 60.1928 15.3421C60.1928 15.5282 60.2607 15.6872 60.3968 15.8207C60.4762 15.8986 60.6446 16.0163 60.9004 16.1753C61.3054 16.3931 61.5937 16.5855 61.7638 16.7523C62.0327 17.0194 62.1671 17.3374 62.1671 17.7079C62.1671 18.0862 62.0327 18.4089 61.7638 18.6745C61.495 18.94 61.1694 19.0718 60.7856 19.0718C60.7411 19.0718 60.6976 19.0701 60.6545 19.0665H25.3753V18.6596L25.3755 18.6596ZM11.3206 0.846191C14.2743 0.846191 16.9488 2.0216 18.8847 3.9218C20.8202 5.82183 22.0179 8.44695 22.0179 11.3464C22.0179 14.2458 20.8203 16.8709 18.8847 18.771C16.9488 20.671 14.2743 21.8464 11.3206 21.8464C8.36686 21.8464 5.69224 20.6712 3.75652 18.771C1.82063 16.8709 0.623291 14.2457 0.623291 11.3464C0.623291 8.44711 1.82063 5.82182 3.75652 3.9218C5.69226 2.0216 8.36686 0.846191 11.3206 0.846191ZM18.3785 4.41868C16.5723 2.64569 14.0769 1.54913 11.3206 1.54913C8.56419 1.54913 6.06872 2.64569 4.26259 4.41868C2.45644 6.19137 1.33928 8.6408 1.33928 11.3464C1.33928 14.052 2.45644 16.5014 4.26259 18.2741C6.06873 20.0471 8.56419 21.1436 11.3206 21.1436C14.0769 21.1436 16.5723 20.0469 18.3785 18.2741C20.1844 16.5012 21.3018 14.0518 21.3018 11.3464C21.3018 8.6408 20.1844 6.19135 18.3785 4.41868ZM64.114 14.3867V12.4391H64.5399V14.3867H65.489V14.8063H64.5399V18.9605H64.114V14.8063H63.1649V14.3867H64.114ZM68.5503 19.0257C67.9688 19.0257 67.504 18.8572 67.1605 18.5185C66.8156 18.18 66.6374 17.7523 66.6278 17.2373V14.3866H67.0553V17.2006C67.0553 17.5885 67.1995 17.9192 67.4878 18.1926C67.7728 18.4678 68.1242 18.606 68.5454 18.606C68.9374 18.606 69.2775 18.4692 69.5626 18.1943C69.8492 17.9192 69.9934 17.5885 69.9934 17.2006V14.3866H70.4194V17.2373C70.4096 17.7523 70.2331 18.18 69.8882 18.5185C69.5431 18.8572 69.0977 19.0257 68.5503 19.0257V19.0257ZM76.8737 18.9605H76.4462V18.029C76.3635 18.1371 76.2745 18.242 76.1757 18.3406C75.6672 18.8413 75.0517 19.0909 74.3308 19.0909C73.6117 19.0909 72.9978 18.8413 72.4893 18.3406C71.9791 17.8413 71.7247 17.2387 71.7247 16.5345C71.7247 15.8254 71.9791 15.2213 72.4893 14.7221C72.9978 14.2228 73.6117 13.9718 74.3308 13.9718C75.0517 13.9718 75.6672 14.2228 76.1757 14.7221C76.2745 14.8207 76.3635 14.9256 76.4462 15.0337V11.5074H76.8737V18.9605V18.9605ZM76.4462 16.9479V16.1195C76.3668 15.7093 76.1692 15.3501 75.8534 15.0385C75.4323 14.6251 74.9252 14.4201 74.3308 14.4201C73.7347 14.4201 73.2279 14.6251 72.8067 15.0385C72.3856 15.4519 72.1766 15.9494 72.1766 16.5345C72.1766 17.1179 72.3856 17.6155 72.8067 18.0274C73.2279 18.4376 73.7347 18.6443 74.3308 18.6443C74.9252 18.6443 75.4323 18.4376 75.8534 18.0242C76.1692 17.7141 76.3668 17.3548 76.4462 16.9479V16.9479ZM78.8189 14.3867V18.9605H78.3914V14.3867H78.8189ZM78.6052 12.7667C78.7217 12.7667 78.8222 12.8064 78.9065 12.8875C78.9907 12.967 79.0328 13.0656 79.0328 13.1801C79.0328 13.2976 78.9907 13.3979 78.9065 13.479C78.8222 13.5599 78.7217 13.5997 78.6052 13.5997C78.4886 13.5997 78.3881 13.5599 78.304 13.479C78.2198 13.3979 78.1776 13.2976 78.1776 13.1801C78.1776 13.0656 78.2198 12.967 78.304 12.8875C78.3881 12.8064 78.4886 12.7667 78.6052 12.7667ZM82.6576 13.9718C83.3784 13.9718 83.9939 14.2228 84.5008 14.7221C85.0094 15.2213 85.2621 15.8254 85.2621 16.5345C85.2621 17.2387 85.0094 17.8413 84.5008 18.3406C83.9939 18.8413 83.3784 19.0909 82.6576 19.0909C81.94 19.0909 81.3261 18.8413 80.816 18.3406C80.3075 17.8413 80.0532 17.2387 80.0532 16.5345C80.0532 15.8254 80.3075 15.2213 80.816 14.7221C81.3261 14.2228 81.94 13.9718 82.6576 13.9718ZM82.6576 14.4201C82.0632 14.4201 81.5546 14.6251 81.135 15.0385C80.7141 15.4519 80.5035 15.9494 80.5035 16.5345C80.5035 17.1179 80.7141 17.6155 81.135 18.0274C81.5546 18.4376 82.0632 18.6443 82.6576 18.6443C83.2521 18.6443 83.7606 18.4376 84.1817 18.0274C84.6012 17.6155 84.8118 17.1179 84.8118 16.5345C84.8118 15.9494 84.6012 15.4519 84.1817 15.0385C83.7606 14.6251 83.2521 14.4201 82.6576 14.4201ZM40.1865 11.1837C40.4664 11.1819 40.7334 11.1472 40.9893 11.0782C41.2452 11.009 41.4825 10.9107 41.6994 10.7851C41.9164 10.6577 42.1055 10.5084 42.2668 10.3356C42.4282 10.1626 42.5543 9.97327 42.6451 9.76401L41.9887 9.58928C41.8961 9.795 41.7606 9.97327 41.579 10.1281C41.3972 10.281 41.1896 10.4011 40.9522 10.4848C40.7149 10.5704 40.4664 10.6141 40.2086 10.6158C39.9286 10.6141 39.6654 10.5612 39.4188 10.4575C39.1703 10.352 38.9495 10.2045 38.7568 10.0152C38.5639 9.82584 38.4063 9.60197 38.2877 9.34357C38.1689 9.08693 38.0966 8.80492 38.0726 8.49722H43.0234C43.0289 8.47184 43.0345 8.43169 43.0383 8.37356C43.0438 8.31703 43.0456 8.25889 43.0456 8.20236C43.042 7.80922 42.9696 7.43791 42.8305 7.08845C42.6914 6.73915 42.4949 6.42776 42.241 6.15843C41.9869 5.88911 41.6847 5.67616 41.336 5.52327C40.9856 5.36861 40.5999 5.29024 40.1753 5.28671C39.7526 5.28848 39.365 5.36669 39.0127 5.51958C38.6604 5.67246 38.3525 5.88365 38.093 6.15121C37.8334 6.42053 37.6313 6.73177 37.4885 7.08299C37.3456 7.43438 37.2733 7.81114 37.2715 8.21328C37.2733 8.62104 37.3456 9.00133 37.4885 9.35995C37.6331 9.71663 37.8334 10.0316 38.0948 10.3046C38.3563 10.5776 38.6622 10.7923 39.0183 10.9471C39.3723 11.1018 39.7617 11.18 40.1865 11.1837H40.1865ZM38.0503 7.92934C38.0706 7.62726 38.1393 7.35055 38.2561 7.09937C38.3712 6.8482 38.525 6.63171 38.7161 6.44606C38.907 6.26218 39.1275 6.12021 39.3761 6.01823C39.6226 5.91818 39.8897 5.86727 40.1753 5.8655C40.4608 5.86727 40.7279 5.91641 40.9744 6.01646C41.223 6.11652 41.4435 6.25848 41.6364 6.44237C41.8293 6.62625 41.9851 6.84467 42.1037 7.09584C42.2223 7.34702 42.2966 7.62549 42.3225 7.92934H38.0503L38.0503 7.92934ZM78.6492 11.1837C78.9291 11.1819 79.1961 11.1472 79.452 11.0782C79.7079 11.009 79.9453 10.9107 80.1621 10.7851C80.3792 10.6577 80.5684 10.5084 80.7295 10.3356C80.891 10.1626 81.017 9.97327 81.1078 9.76401L80.4514 9.58928C80.3588 9.795 80.2235 9.97327 80.0417 10.1281C79.8599 10.281 79.6523 10.4011 79.4149 10.4848C79.1776 10.5704 78.9291 10.6141 78.6714 10.6158C78.3913 10.6141 78.1281 10.5612 77.8815 10.4575C77.6329 10.352 77.4124 10.2045 77.2195 10.0152C77.0268 9.82584 76.869 9.60197 76.7504 9.34357C76.6316 9.08693 76.5595 8.80492 76.5353 8.49722H81.4861C81.4916 8.47184 81.4972 8.43169 81.501 8.37356C81.5065 8.31703 81.5085 8.25889 81.5085 8.20236C81.5047 7.80922 81.4324 7.43791 81.2933 7.08845C81.1543 6.73915 80.9576 6.42776 80.7037 6.15843C80.4496 5.88911 80.1474 5.67616 79.7987 5.52327C79.4482 5.36861 79.0626 5.29024 78.638 5.28671C78.2152 5.28848 77.8276 5.36669 77.4754 5.51958C77.1231 5.67246 76.8152 5.88365 76.5557 6.15121C76.296 6.42053 76.094 6.73177 75.9511 7.08299C75.8085 7.43438 75.7362 7.81114 75.7342 8.21328C75.7362 8.62104 75.8085 9.00133 75.9511 9.35995C76.0958 9.71663 76.296 10.0316 76.5575 10.3046C76.819 10.5776 77.1249 10.7923 77.4809 10.9471C77.8352 11.1018 78.2246 11.18 78.6492 11.1837H78.6492ZM76.513 7.92934C76.5334 7.62726 76.602 7.35055 76.7188 7.09937C76.8338 6.8482 76.9878 6.63171 77.1787 6.44606C77.3697 6.26218 77.5904 6.12021 77.8388 6.01823C78.0855 5.91818 78.3524 5.86727 78.638 5.8655C78.9235 5.86727 79.1906 5.91641 79.4371 6.01646C79.6857 6.11652 79.9064 6.25848 80.0991 6.44237C80.292 6.62625 80.4478 6.84467 80.5664 7.09584C80.685 7.34702 80.7593 7.62549 80.7851 7.92934H76.513L76.513 7.92934ZM47.3925 11.1887C47.2431 11.2147 47.0885 11.2282 46.9287 11.229H46.9282C46.7726 11.2282 46.6203 11.2139 46.4719 11.1864C46.3226 11.1588 46.1767 11.118 46.0347 11.064H46.0345C45.8923 11.0094 45.7569 10.9452 45.6283 10.8707C45.4993 10.796 45.3773 10.7114 45.2614 10.6161C45.1466 10.522 45.0409 10.42 44.9447 10.3107C44.8832 10.2407 44.8256 10.1677 44.7721 10.0921V11.0745V11.1199H44.7256H44.2249H44.1785V11.0745V3.10257V3.05696H44.2249H44.7812H44.8275V3.10257V6.48556C44.8938 6.39627 44.9627 6.31067 45.0343 6.22877V6.2286C45.1369 6.11169 45.2454 6.00232 45.3603 5.90083H45.3604C45.4759 5.79949 45.5967 5.70923 45.7228 5.63038C45.8495 5.55153 45.9827 5.48327 46.1227 5.42674L46.1225 5.42658C46.2626 5.36909 46.4089 5.32589 46.5619 5.29682C46.714 5.26791 46.8732 5.25313 47.0394 5.25217H47.0399C47.208 5.25313 47.3688 5.26791 47.5228 5.29634C47.6771 5.32492 47.8246 5.36716 47.9655 5.42289H47.9657C48.1051 5.47829 48.2374 5.54462 48.3623 5.62171C48.4866 5.69847 48.6038 5.78616 48.7136 5.8846C48.8235 5.98225 48.9251 6.0876 49.018 6.2005C49.1105 6.3126 49.1946 6.43256 49.2697 6.55976H49.2695C49.3459 6.68743 49.4127 6.81912 49.4701 6.95434C49.5277 7.09021 49.5761 7.23057 49.6156 7.37527C49.6944 7.66483 49.734 7.95824 49.734 8.25695L49.7337 8.25727C49.7329 8.41755 49.7209 8.57461 49.6977 8.72798C49.6746 8.87975 49.6404 9.02878 49.5946 9.17493C49.5483 9.32155 49.4924 9.46304 49.4269 9.59907C49.3621 9.73365 49.2875 9.86325 49.2033 9.98739V9.98755C49.1198 10.1109 49.0275 10.2273 48.9269 10.3362C48.8264 10.4449 48.7181 10.5459 48.6023 10.6383L48.6021 10.6385C48.4851 10.7311 48.3624 10.8135 48.2342 10.8855H48.234C48.1054 10.9576 47.9706 11.0196 47.8292 11.0714C47.6883 11.1235 47.5427 11.1625 47.3925 11.1887V11.1887ZM46.5718 10.6282C46.6551 10.6405 46.7368 10.6466 46.8173 10.6466V10.647C46.9496 10.646 47.0776 10.6344 47.2009 10.6121C47.3241 10.59 47.4429 10.5569 47.557 10.5133L47.5573 10.5132C47.6718 10.4703 47.7809 10.4189 47.8842 10.3592C47.9879 10.2993 48.0867 10.2304 48.1798 10.1535C48.2723 10.076 48.3588 9.99269 48.4388 9.9034C48.5187 9.81427 48.5922 9.71919 48.6584 9.61754C48.725 9.51636 48.7839 9.41165 48.835 9.30341C48.8863 9.19484 48.9302 9.08243 48.9665 8.96648H48.9663C49.002 8.85052 49.029 8.73313 49.0468 8.61477C49.0647 8.49705 49.0737 8.37756 49.0737 8.25696H49.074C49.073 8.09893 49.0593 7.94395 49.0328 7.79219C49.0063 7.64042 48.967 7.49203 48.9151 7.34733C48.8634 7.20279 48.8004 7.06597 48.7263 6.93668C48.6525 6.80804 48.5673 6.68695 48.4709 6.57357L48.4708 6.57309C48.3754 6.45907 48.271 6.35757 48.1576 6.26795C48.0445 6.17882 47.9218 6.10125 47.79 6.03525C47.6587 5.9694 47.52 5.91962 47.3745 5.88621C47.2288 5.85265 47.0761 5.83514 46.9174 5.83434C46.7958 5.83514 46.6785 5.84542 46.565 5.8655C46.4517 5.88541 46.3423 5.91528 46.2366 5.95511L46.2364 5.95527C46.1304 5.99446 46.0291 6.04103 45.9326 6.09467C45.8352 6.14895 45.7421 6.21062 45.6536 6.27952L45.6535 6.27968C45.564 6.34889 45.4794 6.42277 45.4002 6.5013C45.3212 6.57951 45.2462 6.66334 45.1757 6.75248V6.75232C45.1073 6.83984 45.0438 6.93058 44.9853 7.02405C44.9275 7.11639 44.875 7.2105 44.8275 7.30606V9.17205C44.8375 9.25235 44.8557 9.33056 44.8824 9.40668C44.9093 9.48361 44.945 9.55861 44.9897 9.63136L44.9898 9.63168C45.0339 9.70475 45.0847 9.77557 45.1422 9.84351C45.2001 9.91192 45.2639 9.97696 45.3331 10.0378L45.3334 10.038C45.4035 10.1005 45.4773 10.1586 45.5543 10.2122C45.6315 10.2659 45.7124 10.3155 45.797 10.361C45.8827 10.4062 45.9696 10.447 46.0569 10.4827C46.1428 10.5175 46.2289 10.5477 46.3146 10.5721V10.5723C46.4017 10.5969 46.4873 10.6155 46.5718 10.6282L46.5718 10.6282ZM59.5257 7.06934C59.5552 7.29659 59.5697 7.54343 59.5688 7.80922H59.5689V11.0745V11.1199H59.5225H58.9663H58.9199V11.0745V7.9075C58.9199 7.5537 58.8919 7.24551 58.8356 6.98358C58.7798 6.72389 58.6962 6.50965 58.5845 6.34151C58.4742 6.17561 58.3362 6.05115 58.1708 5.9686C58.0046 5.88557 57.8099 5.84446 57.5869 5.84526C57.429 5.84606 57.2772 5.86518 57.1319 5.90211C56.9868 5.93921 56.8478 5.9943 56.7156 6.06705C56.5829 6.14012 56.4596 6.22748 56.3457 6.3285C56.2317 6.42984 56.1263 6.54595 56.0296 6.67652L56.0294 6.67684C55.9329 6.80628 55.8486 6.94648 55.7763 7.0968C55.705 7.24567 55.6451 7.40499 55.5972 7.57474V11.0745V11.1199H55.5507H54.9944H54.9481V11.0745V7.9075H54.9483C54.9491 7.54872 54.9216 7.23781 54.866 6.97442C54.8108 6.71377 54.728 6.5005 54.6183 6.33428L54.6181 6.33412C54.5095 6.16919 54.3732 6.04601 54.2091 5.96491C54.0438 5.88333 53.8496 5.8435 53.6264 5.84526H53.6263C53.4725 5.84607 53.3234 5.86486 53.1794 5.90099C53.0353 5.93713 52.8965 5.99093 52.7638 6.06175C52.6303 6.13402 52.506 6.21994 52.3908 6.31967V6.31983C52.2751 6.42004 52.1683 6.53423 52.0703 6.66239H52.0704C51.9718 6.79231 51.8849 6.93315 51.8105 7.08476C51.737 7.23379 51.6752 7.39375 51.6253 7.5643V11.0745V11.1199H51.5789H51.0227H50.9762V11.0745V5.39593V5.35032H51.0227H51.5344H51.5809V5.39593V6.57519C51.6398 6.47723 51.7023 6.38441 51.7684 6.29656C51.8679 6.16455 51.9757 6.04346 52.0919 5.93313V5.93296C52.2079 5.82263 52.3304 5.72579 52.4587 5.64196C52.5868 5.55813 52.7216 5.48715 52.8627 5.42869C53.0039 5.37007 53.1497 5.32575 53.2995 5.29636V5.2962C53.4487 5.26681 53.602 5.25203 53.7594 5.25203L53.7598 5.25219C53.9258 5.25316 54.0809 5.27034 54.2254 5.30358C54.3709 5.33699 54.5063 5.38661 54.6322 5.45214L54.6325 5.4523C54.7575 5.51878 54.8701 5.59796 54.9708 5.6903C55.0713 5.78232 55.1601 5.88768 55.2374 6.00668H55.2375C55.3133 6.12359 55.3753 6.25111 55.4241 6.38858C55.4591 6.48751 55.4871 6.59158 55.5082 6.70078C55.6307 6.49056 55.7624 6.3033 55.9033 6.13885C56.0703 5.94405 56.25 5.78104 56.4421 5.64967C56.6355 5.51766 56.8419 5.41809 57.0614 5.3516C57.2796 5.28544 57.5105 5.25203 57.7536 5.25203L57.7538 5.25219C57.9688 5.25315 58.1635 5.27917 58.3377 5.33008C58.5136 5.38147 58.669 5.45824 58.8035 5.56022C58.9383 5.66236 59.0547 5.7873 59.1525 5.93441C59.2499 6.08087 59.3292 6.24934 59.3906 6.43965V6.43997C59.4508 6.63012 59.4959 6.83986 59.5257 7.06935V7.06934ZM63.079 11.1977C62.9239 11.2185 62.7656 11.2293 62.6043 11.2293L62.6041 11.229C62.4665 11.2282 62.3334 11.2161 62.2052 11.1933C62.0762 11.1702 61.952 11.1362 61.8332 11.0913H61.8327C61.7147 11.0459 61.6036 10.9913 61.4997 10.9275C61.3957 10.8635 61.2996 10.7907 61.2116 10.709C61.122 10.6274 61.0429 10.5386 60.9741 10.4433C60.9048 10.3475 60.8453 10.2448 60.7951 10.1358V10.1355C60.7455 10.0261 60.7083 9.91191 60.6835 9.79323C60.6584 9.67391 60.6453 9.54945 60.6445 9.42017V9.41984C60.6453 9.29313 60.6612 9.17188 60.6918 9.05593C60.7224 8.93998 60.7681 8.82901 60.8283 8.72269L60.8284 8.72221C60.8895 8.6175 60.9626 8.51953 61.048 8.42864C61.1331 8.33806 61.2306 8.25439 61.3409 8.17794C61.4507 8.10182 61.5709 8.03389 61.701 7.97479C61.8307 7.91569 61.9703 7.86526 62.1189 7.82367C62.2679 7.78239 62.4251 7.7514 62.5902 7.73052C62.7542 7.70996 62.9258 7.69936 63.1048 7.6984L63.105 7.69824C63.2095 7.69824 63.3159 7.70145 63.4232 7.70787C63.5305 7.71446 63.6372 7.7241 63.7429 7.73678C63.8499 7.74947 63.9554 7.76473 64.0597 7.78239C64.1636 7.80006 64.2661 7.82029 64.3669 7.84326H64.3671C64.4656 7.86574 64.561 7.8908 64.6528 7.91778C64.7239 7.93865 64.7933 7.96098 64.8609 7.98458V7.49251H64.8611C64.8602 7.3173 64.8421 7.15333 64.8069 7.00108C64.7719 6.84964 64.7198 6.7096 64.6513 6.58193C64.5827 6.45425 64.4996 6.34103 64.4024 6.24258C64.3056 6.14462 64.1943 6.06095 64.069 5.99253L64.0688 5.99221C63.943 5.92251 63.8054 5.87 63.6562 5.83451C63.5065 5.79885 63.3448 5.78071 63.1717 5.77974V5.7799C63.0289 5.7799 62.8834 5.7942 62.7354 5.82278C62.5865 5.85137 62.4345 5.89441 62.2794 5.95174H62.2792C62.1248 6.00811 61.9687 6.07813 61.8118 6.16116C61.6553 6.24387 61.4979 6.33975 61.3404 6.44863L61.2993 6.4769L61.274 6.43434L61.0514 6.06304L61.0294 6.02626L61.0655 6.00249C61.2538 5.87819 61.439 5.76946 61.6208 5.67648C61.8036 5.58301 61.984 5.50464 62.1622 5.44217C62.3389 5.37889 62.5143 5.33151 62.6879 5.29988C62.863 5.26792 63.0354 5.25202 63.2051 5.25202L63.2053 5.25218C63.4419 5.25314 63.6624 5.27675 63.8663 5.323C64.0706 5.36941 64.2589 5.43863 64.4304 5.53065V5.53049C64.6029 5.62155 64.7557 5.73301 64.8887 5.86422C65.0217 5.99542 65.1349 6.14655 65.228 6.31726C65.321 6.4883 65.391 6.67555 65.4381 6.87903C65.4849 7.08138 65.5088 7.3006 65.5098 7.53604L65.5099 7.5362V10.3009C65.5099 10.3431 65.5144 10.3794 65.5232 10.4094C65.5312 10.4374 65.5428 10.46 65.5577 10.4767L65.5582 10.4774C65.5724 10.4941 65.5906 10.5066 65.6124 10.515C65.6356 10.524 65.6641 10.5285 65.6973 10.5285H65.7436V10.5739V11.0636V11.1029L65.7038 11.1085C65.6847 11.1111 65.6656 11.1135 65.6456 11.1153C65.6251 11.1172 65.6065 11.1182 65.5896 11.1182C65.5541 11.1199 65.5237 11.1199 65.497 11.1199C65.4479 11.1199 65.4002 11.114 65.3535 11.1027C65.3071 11.0913 65.2621 11.0746 65.2186 11.0534L65.2182 11.053C65.1747 11.0311 65.1348 11.0048 65.0991 10.9744C65.0636 10.9441 65.0319 10.9094 65.0045 10.8708H65.0047C64.9759 10.8305 64.9543 10.7878 64.9398 10.742C64.9253 10.6964 64.9177 10.6475 64.9167 10.5948L64.9165 10.594V10.2516C64.8478 10.33 64.7752 10.404 64.6984 10.4734C64.5914 10.57 64.4759 10.6584 64.352 10.7375C64.2279 10.8178 64.0976 10.8885 63.9617 10.9494C63.8247 11.0107 63.6824 11.0623 63.5348 11.1037C63.3872 11.1451 63.2352 11.1766 63.079 11.1977V11.1977ZM62.327 10.6553C62.4494 10.685 62.5788 10.7006 62.7156 10.7014V10.7013C62.8576 10.7013 62.9957 10.6924 63.1293 10.6749C63.2643 10.6572 63.3964 10.6307 63.5246 10.5957C63.6519 10.5609 63.7728 10.5188 63.8867 10.4693C63.9999 10.42 64.1063 10.3634 64.205 10.2994L64.2054 10.2991C64.3044 10.2363 64.3934 10.1671 64.4721 10.0923C64.5515 10.0168 64.6209 9.93504 64.6796 9.84816L64.6806 9.84655L64.6824 9.8443C64.7117 9.80945 64.738 9.7746 64.7606 9.73943C64.7825 9.70507 64.8013 9.67006 64.8161 9.63408C64.8311 9.59779 64.8424 9.56326 64.8499 9.5305C64.8571 9.49854 64.8609 9.46722 64.8609 9.43639V8.46365C64.7344 8.41884 64.6063 8.37901 64.4772 8.34432C64.3378 8.3069 64.1958 8.27495 64.052 8.24893V8.24909C63.9049 8.22339 63.7575 8.20364 63.6102 8.19063C63.4666 8.1781 63.3203 8.17152 63.1717 8.17152V8.17136C62.9805 8.17216 62.8011 8.18565 62.6341 8.21199C62.4677 8.23801 62.3136 8.27687 62.1717 8.32859C62.0305 8.38014 61.9052 8.44181 61.7959 8.51359C61.6874 8.58474 61.5943 8.666 61.5164 8.75738C61.439 8.84892 61.3808 8.94737 61.342 9.05288C61.3029 9.15855 61.283 9.27178 61.2821 9.3927C61.283 9.51637 61.2996 9.63408 61.3315 9.74538C61.3634 9.85683 61.4109 9.96186 61.4736 10.0603V10.0605C61.5369 10.1588 61.611 10.2474 61.6966 10.3255C61.7808 10.4024 61.8761 10.469 61.9827 10.5248H61.9829C62.0907 10.5821 62.2054 10.6259 62.327 10.6553L62.327 10.6553ZM69.6535 11.175C69.4547 11.21 69.2409 11.2282 69.0128 11.229L69.0126 11.2293C68.8621 11.2293 68.7132 11.2209 68.5661 11.2042C68.419 11.1877 68.2739 11.1628 68.1306 11.1297H68.1304C67.9884 11.0966 67.8498 11.0555 67.7145 11.0062C67.5797 10.9569 67.4488 10.8998 67.3221 10.8344C67.1953 10.7689 67.0746 10.6951 66.9602 10.6136C66.8454 10.5317 66.7361 10.4411 66.6328 10.3426L66.6039 10.315L66.6278 10.2832L66.9059 9.91191L66.9362 9.87144L66.9743 9.90501C67.1268 10.0394 67.2824 10.1562 67.4409 10.2556C67.6009 10.356 67.7649 10.4395 67.9323 10.5063V10.5064C68.099 10.5716 68.2721 10.6205 68.4519 10.6528C68.6314 10.6852 68.8182 10.7013 69.0126 10.7013C69.1782 10.7013 69.3331 10.6897 69.4766 10.6669C69.6208 10.6439 69.7544 10.6095 69.877 10.5641C69.9989 10.519 70.1075 10.4637 70.2023 10.3984C70.296 10.3338 70.3763 10.2591 70.4428 10.175L70.4431 10.1745C70.5097 10.0919 70.5599 9.99992 70.5938 9.89907C70.628 9.79709 70.6455 9.68627 70.6463 9.56743H70.6461C70.6461 9.4828 70.637 9.40539 70.6183 9.33569C70.6 9.26663 70.5722 9.204 70.535 9.14811L70.5347 9.14779C70.4982 9.09126 70.4521 9.03891 70.3971 8.99073C70.3412 8.94191 70.2759 8.89742 70.2013 8.85743L70.2009 8.85727C70.1258 8.81632 70.0408 8.77745 69.9465 8.74084C69.8524 8.70406 69.7479 8.66889 69.6335 8.63548C69.5177 8.60176 69.394 8.56819 69.2618 8.53463C69.1306 8.50122 68.9886 8.46718 68.8354 8.43233C68.6702 8.39475 68.5165 8.35733 68.3747 8.32007C68.2323 8.28281 68.1005 8.24523 67.9791 8.20765H67.9789C67.858 8.17023 67.7464 8.12944 67.6446 8.08496C67.5425 8.04063 67.4519 7.99309 67.3727 7.94235C67.2909 7.89128 67.2194 7.8333 67.1582 7.7689C67.0967 7.70402 67.0458 7.63255 67.0057 7.55482H67.0059C66.9651 7.47661 66.9349 7.38941 66.9151 7.29305C66.8954 7.19733 66.8858 7.09279 66.8858 6.9794L66.8859 6.97908C66.8868 6.83454 66.902 6.699 66.9306 6.57277C66.9599 6.44413 67.0031 6.32513 67.0595 6.21608L67.0597 6.21592C67.1168 6.10768 67.185 6.00827 67.2639 5.91833V5.91817C67.3429 5.82808 67.4331 5.74714 67.5335 5.67567C67.6328 5.60437 67.7405 5.54189 67.856 5.48874C67.972 5.43542 68.0954 5.39157 68.2256 5.35737V5.35753C68.3541 5.32252 68.4882 5.29618 68.6271 5.27851C68.7669 5.26085 68.9105 5.25201 69.0571 5.25201L69.0573 5.25217C69.2111 5.25314 69.3582 5.26181 69.4985 5.27867C69.6397 5.29586 69.7759 5.32123 69.9071 5.3556C70.038 5.38981 70.1615 5.4306 70.2777 5.47781C70.394 5.52535 70.5033 5.57963 70.6054 5.64098V5.64114C70.7068 5.70153 70.7993 5.76721 70.8827 5.83787C70.9663 5.9087 71.0411 5.98498 71.107 6.06672L71.1331 6.099L71.103 6.12759L70.7914 6.42229L70.7563 6.45569L70.7243 6.41924C70.662 6.34841 70.5936 6.28337 70.5187 6.22459V6.22475C70.4433 6.16549 70.3611 6.11233 70.2721 6.0656H70.272C70.1826 6.01822 70.0895 5.97663 69.9925 5.94114C69.8951 5.90564 69.7932 5.87561 69.6865 5.85152C69.5797 5.82727 69.4711 5.80945 69.3609 5.79756C69.2512 5.78584 69.1386 5.7799 69.0237 5.7799C68.9166 5.7799 68.8132 5.78536 68.714 5.79644C68.616 5.8072 68.5213 5.82374 68.4303 5.8459C68.3395 5.86791 68.2538 5.89585 68.1734 5.92973C68.0934 5.96346 68.019 6.00313 67.9501 6.04874C67.8819 6.09403 67.8213 6.14542 67.7685 6.20275C67.7151 6.26073 67.6687 6.32545 67.6294 6.39627H67.6296C67.5916 6.46645 67.5628 6.5437 67.5434 6.62753C67.5237 6.71265 67.5132 6.80451 67.5124 6.90279H67.5126C67.5126 6.98117 67.5191 7.05247 67.5326 7.11607C67.5458 7.1787 67.5656 7.23475 67.5921 7.28341C67.6196 7.3332 67.6543 7.37913 67.696 7.42056C67.7382 7.46232 67.788 7.50006 67.8457 7.53362C67.9053 7.56799 67.9728 7.60075 68.0489 7.63159H68.0491C68.1258 7.6629 68.2115 7.69245 68.3064 7.72008C68.4028 7.7485 68.507 7.77725 68.6193 7.80599C68.7304 7.83458 68.8539 7.86461 68.9897 7.89593V7.89609C69.17 7.9364 69.3403 7.97751 69.5005 8.01879C69.6641 8.06086 69.8176 8.10358 69.9606 8.1463H69.9609C70.1023 8.18934 70.2327 8.23591 70.3521 8.2857C70.4714 8.33532 70.5804 8.38864 70.6789 8.44533L70.6794 8.44565C70.8768 8.56225 71.0269 8.70598 71.1293 8.87654L71.1295 8.8767C71.1808 8.96342 71.2198 9.0601 71.2456 9.16626C71.2711 9.27177 71.2841 9.38724 71.2841 9.51283L71.2839 9.51299C71.2831 9.68772 71.2587 9.85104 71.2111 10.0026C71.1633 10.1546 71.092 10.2951 70.9973 10.4237C70.9038 10.5521 70.7908 10.6658 70.6587 10.7648C70.5267 10.8639 70.3757 10.9484 70.206 11.0181C70.0375 11.0875 69.8531 11.1398 69.6535 11.175V11.175ZM73.1902 5.79259V3.60863V3.56302H73.2367H73.7242H73.7707V3.60863V5.79259H74.8108H74.8573V5.8382V6.31871V6.36416H74.8108H73.7707V11.0745V11.1199H73.7242H73.2367H73.1902V11.0745V6.36416H72.1499H72.1036V6.31871V5.8382V5.79259H72.1499H73.1902ZM85.3478 5.33682C85.3695 5.33473 85.3942 5.33184 85.4189 5.32879L85.471 5.32237V5.37392V5.88719V5.93103L85.4263 5.93264C85.2542 5.9389 85.0891 5.95994 84.9315 5.99575C84.7745 6.03156 84.6249 6.08199 84.4837 6.14671L84.4836 6.14703C84.341 6.21192 84.209 6.29045 84.0871 6.38183C83.9651 6.47321 83.8528 6.57808 83.7502 6.69564H83.7504C83.6486 6.81335 83.5591 6.94231 83.4821 7.08251C83.406 7.22111 83.342 7.37095 83.2905 7.53203V11.0745V11.1199H83.244H82.6877H82.6414V11.0745V5.39593V5.35032H82.6877H83.2106H83.2571V5.39593V6.62C83.3014 6.54404 83.3482 6.47097 83.3976 6.40095C83.4814 6.2821 83.5724 6.17145 83.6701 6.06915L83.6704 6.06899C83.7692 5.96717 83.8731 5.87499 83.9821 5.79292C84.0906 5.71118 84.2044 5.63923 84.3237 5.57788C84.4423 5.51541 84.5634 5.46563 84.6863 5.42805C84.8096 5.39031 84.9355 5.36461 85.0636 5.35064L85.0668 5.35032H85.0686C85.1071 5.35032 85.1419 5.34984 85.1712 5.34887C85.2035 5.34775 85.2342 5.34598 85.2629 5.34341L85.2643 5.34325C85.2953 5.34132 85.3231 5.33908 85.3478 5.33683V5.33682Z" fill="white"/>
</svg>
